/* XPM */
static const char *WindChillIndexFrm_WindChillIndexFrm_XPM[]={
/* WindChillIndexFrm_WindChillIndexFrm */
"64 64 57 1",
"      c None",
"0     c #404040",
"1     c #3E3E3A",
"2     c #3D3D3B",
"3     c #3D3D3D",
"4     c #3D3D3C",
"5     c #3E3E3E",
"6     c #3C3C3C",
"7     c #3E3E3B",
"8     c #3D3D3A",
"9     c #5E653B",
"a     c #666E3B",
"b     c #68703D",
"c     c #96978D",
"d     c #989897",
"e     c #8D907F",
"f     c #85923B",
"g     c #95A53B",
"h     c #96A63D",
"i     c #D9DFB9",
"j     c #EFF1E7",
"k     c #A2B054",
"l     c #F2F4E7",
"m     c #D8DEB9",
"n     c #77823B",
"o     c #B2B695",
"p     c #DDDDDB",
"q     c #DBDBDB",
"r     c #D7D8D1",
"s     c #94A054",
"t     c #4B4A48",
"u     c #4F4E4B",
"v     c #424240",
"w     c #533C3C",
"x     c #593C3C",
"y     c #989391",
"z     c #ADA7A4",
"A     c #605E5C",
"B     c #CD393F",
"C     c #EE3840",
"D     c #686563",
"E     c #726F6C",
"F     c #4D4C4A",
"G     c #803B3D",
"H     c #903B3D",
"I     c #797673",
"J     c #878380",
"K     c #545350",
"L     c #5E5B59",
"M     c #656361",
"N     c #6F6B69",
"O     c #7A7674",
"P     c #95918E",
"Q     c #AAA4A1",
"R     c #5F5D5B",
"S     c #545351",
"T     c #5A5856",
"           012222222222222222222222222222222222222210           ",
"          34222222222222222222222222222222222222222243          ",
"         5422222222222222222222222222222222222222222245         ",
"         4222222222222222222222222222222222222222222224         ",
"        022222222222222222222222222222222222222222222220        ",
"        622222222222222222222222222222222222222222222226        ",
"        722222222222222222222222222222222222222222222227        ",
"        822222229aaaaaaaaaaaaaabcdddddddddeaaaa922222228        ",
"        82222222fggggggggggggghi         jkggggf22222228        ",
"        82222222fgggggggggggghi         lkgggggf22222228        ",
"        82222222fggggggggggghi         lkggggggf22222228        ",
"        82222222fgggggggggghi         lkgggggggf22222228        ",
"        82222222fggggggggghi         lkggggggggf22222228        ",
"        82222222fgggggggghi         lkgggggggggf22222228        ",
"        82222222fggggggghi         lkggggggggggf22222228        ",
"        82222222fgggggghi         lkgggggggggggf22222228        ",
"        82222222fggggghi         lkggggggggggggf22222228        ",
"        82222222fgggghm         lkgggggggggggggf22222228        ",
"        82222222nffffopqqqqqqqqrsffffffffffffffn22222228        ",
"        822222222222222222222222222222222222222222222228        ",
"        822222222222222222222222222222222222222222222228        ",
"        822222222222222222222222222222222222222222222228        ",
"        822222222222222222222222222222222222222222222228        ",
"        822222222222222222222222222222222222222222222228        ",
"        82222222tuuuuut22222vuuuuuuv22222wxxxxxw22222228        ",
"        82222222yzzzzzy22222AzzzzzzA22222BCCCCCB22222228        ",
"        82222222yzzzzzy22222AzzzzzzA22222BCCCCCB22222228        ",
"        82222222yzzzzzy22222AzzzzzzA22222BCCCCCB22222228        ",
"        82222222yzzzzzy22222AzzzzzzA22222BCCCCCB22222228        ",
"        82222222yzzzzzy22222AzzzzzzA22222BCCCCCB22222228        ",
"        82222222yzzzzzy22222AzzzzzzA22222BCCCCCB22222228        ",
"        82222222DEEEEED22222FEEEEEEF22222GHHHHHG22222228        ",
"        822222222222222222222222222222222222222222222228        ",
"        822222222222222222222222222222222222222222222228        ",
"        822222222222222222222222222222222222222222222228        ",
"        822222222222222222222222222222222222222222222228        ",
"        822222222222222222222222222222222222222222222228        ",
"        82222222IJJJJJI22222KJJJJJJK22222LMMMMML22222228        ",
"        82222222yzzzzzy22222AzzzzzzA22222NOOOOON22222228        ",
"        82222222yzzzzzy22222AzzzzzzA22222NOOOOON22222228        ",
"        82222222yzzzzzy22222AzzzzzzA22222NOOOOON22222228        ",
"        82222222yzzzzzy22222AzzzzzzA22222NOOOOON22222228        ",
"        82222222yzzzzzy22222AzzzzzzA22222NOOOOON22222228        ",
"        82222222PQQQQQP22222RQQQQQQR22222NOOOOON22222228        ",
"        822222222222222222222222222222222NOOOOON22222228        ",
"        822222222222222222222222222222222NOOOOON22222228        ",
"        822222222222222222222222222222222NOOOOON22222228        ",
"        822222222222222222222222222222222NOOOOON22222228        ",
"        822222222222222222222222222222222NOOOOON22222228        ",
"        82222222tuuuuut22222vuuuuuuv22222NOOOOON22222228        ",
"        82222222yzzzzzy22222AzzzzzzA22222NOOOOON22222228        ",
"        82222222yzzzzzy22222AzzzzzzA22222NOOOOON22222228        ",
"        82222222yzzzzzy22222AzzzzzzA22222NOOOOON22222228        ",
"        82222222yzzzzzy22222AzzzzzzA22222NOOOOON22222228        ",
"        82222222yzzzzzy22222AzzzzzzA22222NOOOOON22222228        ",
"        82222222yzzzzzy22222AzzzzzzA22222NOOOOON22222228        ",
"        82222222DEEEEED22222FEEEEEEF22222STTTTTS22222228        ",
"        722222222222222222222222222222222222222222222227        ",
"        622222222222222222222222222222222222222222222226        ",
"        022222222222222222222222222222222222222222222220        ",
"         4222222222222222222222222222222222222222222224         ",
"         5422222222222222222222222222222222222222222245         ",
"          34222222222222222222222222222222222222222243          ",
"           012222222222222222222222222222222222222210           "};

